<?xml version="1.0" standalone="no"?>
<!DOCTYPE svg PUBLIC "-//W3C//DTD SVG 20010904//EN"
 "http://www.w3.org/TR/2001/REC-SVG-20010904/DTD/svg10.dtd">
<svg version="1.0" xmlns="http://www.w3.org/2000/svg"
 width="700.000000pt" height="700.000000pt" viewBox="0 0 700.000000 700.000000"
 preserveAspectRatio="xMidYMid meet">
<metadata>
Created by potrace 1.14, written by Peter Selinger 2001-2017
</metadata>
<g transform="translate(0.000000,700.000000) scale(0.100000,-0.100000)"
fill="#000000" stroke="none">
<path d="M3467 6935 c-9 -7 -51 -86 -93 -176 -42 -90 -101 -215 -130 -278 -30
-62 -54 -115 -54 -116 0 -2 -27 -61 -61 -132 -33 -70 -70 -148 -81 -173 -11
-25 -41 -88 -66 -140 -24 -52 -57 -122 -72 -155 -54 -118 -88 -192 -135 -290
-26 -55 -59 -125 -72 -155 -14 -30 -48 -102 -75 -160 -58 -123 -67 -160 -43
-183 25 -25 54 -21 120 19 32 20 98 56 147 80 467 234 950 210 1428 -74 81
-48 116 -55 137 -26 21 29 16 52 -41 173 -30 64 -72 154 -94 201 -43 92 -85
183 -152 325 -23 50 -71 151 -105 225 -34 74 -82 176 -105 225 -23 50 -68 146
-100 215 -32 69 -79 170 -105 225 -26 55 -74 159 -107 230 -33 72 -68 134 -77
140 -23 14 -45 14 -64 0z"/>
<path d="M2450 6416 c-556 -199 -1068 -578 -1432 -1061 -51 -68 -168 -242
-168 -249 0 -3 -15 -29 -34 -58 -28 -45 -142 -270 -167 -333 -5 -11 -20 -46
-33 -78 -14 -31 -25 -58 -25 -60 0 -1 -2 -9 -5 -17 -45 -125 -115 -386 -131
-485 -4 -22 -8 -44 -9 -50 -8 -31 -22 -138 -33 -260 -14 -150 -8 -530 11 -645
3 -14 12 -72 21 -130 13 -85 37 -195 79 -360 33 -129 125 -357 222 -548 216
-426 558 -821 958 -1106 395 -283 889 -481 1351 -542 22 -3 51 -7 65 -10 149
-25 581 -25 760 0 19 3 58 8 85 12 40 5 213 39 295 58 222 52 549 184 765 309
66 38 248 152 270 170 6 4 44 33 85 64 41 32 77 60 80 63 3 3 37 32 75 65 277
236 549 584 727 930 101 198 218 514 253 685 2 8 11 51 20 95 9 44 19 96 21
115 2 19 6 46 9 60 2 14 7 45 10 70 3 25 8 61 11 80 9 64 12 454 3 545 -11
121 -24 226 -34 275 -3 14 -8 41 -11 60 -45 283 -196 687 -360 968 -187 320
-447 627 -713 842 -24 19 -48 40 -55 46 -26 24 -205 148 -290 201 -188 118
-546 283 -648 299 -56 9 -104 -4 -144 -38 -72 -64 -88 -150 -41 -230 29 -50
59 -68 207 -124 186 -71 433 -206 600 -327 176 -129 404 -345 533 -507 73 -91
217 -303 217 -319 0 -5 3 -11 8 -13 8 -3 22 -30 87 -158 110 -217 194 -463
240 -705 3 -16 8 -41 10 -55 3 -14 8 -45 11 -70 3 -25 7 -56 10 -70 6 -40 17
-238 17 -325 1 -425 -109 -879 -301 -1241 -74 -140 -86 -161 -151 -259 -509
-771 -1368 -1231 -2291 -1228 -100 0 -250 9 -315 18 -236 33 -385 68 -565 130
-259 90 -570 256 -755 402 -16 13 -35 27 -40 31 -84 59 -311 279 -411 397
-218 257 -402 591 -508 920 -27 83 -70 254 -81 315 -3 19 -8 42 -10 50 -2 8
-7 42 -11 74 -3 33 -8 67 -9 75 -22 128 -23 516 -1 639 2 9 7 40 10 67 11 74
16 107 21 135 3 14 7 36 10 49 21 113 125 443 146 465 5 6 9 16 9 23 0 19 99
217 164 327 125 212 233 352 411 532 283 286 590 489 953 631 146 57 172 72
200 122 42 75 29 163 -35 223 -57 54 -120 61 -223 24z"/>
<path d="M3138 5062 c-67 -34 -68 -43 -68 -464 1 -410 1 -413 57 -449 56 -37
139 -16 169 44 14 26 17 65 17 235 l0 204 30 -33 c16 -19 52 -61 80 -93 29
-33 57 -64 62 -70 6 -6 39 -45 75 -86 36 -41 73 -84 83 -95 10 -11 33 -37 50
-58 55 -66 107 -82 172 -51 64 30 65 39 65 461 0 361 -1 379 -20 411 -47 77
-155 75 -206 -4 -14 -21 -17 -56 -17 -231 l-1 -205 -40 44 c-51 56 -76 85
-201 228 -136 157 -177 200 -198 211 -32 18 -75 18 -109 1z"/>
</g>
</svg>
